<svg id="Capa_1" enable-background="new 0 0 512.001 512.001" height="512" viewBox="0 0 512.001 512.001" width="512" xmlns="http://www.w3.org/2000/svg"><g><path d="m491.64 188.725-153.53-22.31-68.66-139.12c-2.75-5.57-8.1-8.36-13.45-8.36l.02 400.2 137.3 72.19c11.01 5.78 23.86-3.56 21.76-15.81l-26.22-152.92 111.09-108.29c8.91-8.68 3.99-23.79-8.31-25.58z" fill="#ffb820"/><path d="m356.62 312.125s23.68 138.03 23.76 138.49c-.08-.01-122.45-31-124.36-31.48-.02-.01-137.34 72.19-137.34 72.19-11.01 5.78-23.86-3.56-21.76-15.81l26.22-152.92-111.09-108.29c-8.91-8.68-3.99-23.79 8.31-25.58l153.53-22.31 68.66-139.12c2.75-5.57 8.1-8.36 13.45-8.36l62.19 174.9 139.06 20.21z" fill="#ffd06a"/><path d="m510.883 196.615c-2.666-8.204-9.625-14.07-18.16-15.311l-149.632-21.743-66.918-135.588c-3.817-7.735-11.547-12.54-20.173-12.54s-16.356 4.805-20.173 12.54l-66.917 135.588-149.632 21.744c-8.537 1.24-15.495 7.106-18.161 15.311s-.484 17.04 5.693 23.062l108.274 105.541-9.911 57.786c-.7 4.082 2.042 7.959 6.124 8.66 4.087.7 7.96-2.043 8.66-6.125l10.578-61.672c.417-2.433-.389-4.915-2.157-6.639l-111.098-108.295c-2.089-2.036-2.798-4.909-1.897-7.684.902-2.775 3.164-4.683 6.052-5.103l153.534-22.31c2.443-.354 4.554-1.889 5.647-4.103l68.662-139.125c1.292-2.617 3.804-4.179 6.722-4.179s5.431 1.562 6.722 4.179l68.663 139.125c1.093 2.214 3.204 3.748 5.647 4.103l153.534 22.31c2.888.42 5.15 2.327 6.051 5.102.902 2.775.193 5.648-1.896 7.685l-111.099 108.294c-1.768 1.724-2.575 4.206-2.157 6.639l26.227 152.913c.494 2.876-.621 5.617-2.982 7.332-2.361 1.714-5.312 1.929-7.895.57l-137.325-72.195c-2.186-1.148-4.795-1.148-6.98 0l-137.325 72.195c-2.583 1.358-5.535 1.144-7.894-.57-2.361-1.715-3.476-4.456-2.982-7.332l10.578-61.673c.7-4.082-2.042-7.959-6.124-8.66-4.086-.697-7.96 2.043-8.66 6.125l-10.578 61.673c-1.458 8.502 1.971 16.933 8.95 22.003 3.943 2.865 8.557 4.32 13.201 4.32 3.575 0 7.169-.862 10.49-2.608l133.834-70.36 133.834 70.36c7.635 4.014 16.713 3.357 23.692-1.712 6.979-5.07 10.408-13.502 8.949-22.003l-25.56-149.027 108.275-105.541c6.177-6.022 8.359-14.859 5.693-23.062z"/></g></svg>