<?xml version="1.0" standalone="no"?>
<!DOCTYPE svg PUBLIC "-//W3C//DTD SVG 1.1//EN" "http://www.w3.org/Graphics/SVG/1.1/DTD/svg11.dtd">
<svg xmlns="http://www.w3.org/2000/svg">
<metadata>Copyright (C) 2021 by original authors @ fontello.com</metadata>
<defs>
<font id="fontello" horiz-adv-x="1000" >
<font-face font-family="fontello" font-weight="400" font-stretch="normal" units-per-em="1000" ascent="850" descent="-150" />
<missing-glyph horiz-adv-x="1000" />
<glyph glyph-name="attention-alt" unicode="&#xe800;" d="M0 350q0 95 37 182t100 149 149 100 183 37q95 0 182-37t149-100 100-149 37-182q0-95-37-182t-100-150-149-100-182-37q-96 0-183 37t-149 100-100 150-37 182z m117 0q0-96 47-177t128-128 177-47q95 0 176 47t128 128 47 177q0 95-47 176t-128 128-176 47q-72 0-137-28t-112-75-75-112-28-136z m271 196q-4 36 19 63t58 31q35 3 62-19t31-58q1-9 0-17l-27-244q-2-24-21-39t-43-13q-21 2-36 17t-17 35z m11-411q0 31 22 52 20 20 52 20t51-20q22-21 22-52t-22-52q-20-22-52-22-30 0-51 22-22 21-22 52z" horiz-adv-x="937.5" />

<glyph glyph-name="search" unicode="&#xe801;" d="M772 78q30-34 6-62l-46-46q-36-32-68 0l-190 190q-74-42-156-42-128 0-223 95t-95 223 90 219 218 91 224-95 96-223q0-88-46-162z m-678 358q0-88 68-156t156-68 151 63 63 153q0 88-68 155t-156 67-151-63-63-151z" horiz-adv-x="789" />

<glyph glyph-name="phone" unicode="&#xe802;" d="M720-150c-176 0-363 64-509 211-146 146-211 333-211 509 0 155 125 280 280 280 12 0 23-7 28-18l125-314c6-15-1-32-16-38l-138-55c10-159 137-286 296-296l55 138c6 15 23 22 38 16l314-125c11-5 18-16 18-28 0-155-125-280-280-280z m-459 941c-112-10-202-104-202-221 0-177 68-343 193-468 125-125 291-193 468-193 117 0 211 90 221 202l-268 107-52-130c-4-11-15-18-27-18-206 0-374 168-374 374 0 12 7 23 18 27l130 52z" horiz-adv-x="1000" />

<glyph glyph-name="star" unicode="&#xe803;" d="M929 489q0-12-15-27l-202-197 48-279q0-4 0-12 0-11-6-19t-17-9q-10 0-22 7l-251 132-250-132q-12-7-23-7-11 0-17 9t-6 19q0 4 1 12l48 279-203 197q-14 15-14 27 0 21 31 26l280 40 126 254q11 23 27 23t28-23l125-254 280-40q32-5 32-26z" horiz-adv-x="928.6" />

<glyph glyph-name="star-empty" unicode="&#xe804;" d="M635 290l170 166-235 34-106 213-105-213-236-34 171-166-41-235 211 111 211-111z m294 199q0-12-15-27l-202-197 48-279q0-4 0-12 0-28-23-28-10 0-22 7l-251 132-250-132q-12-7-23-7-11 0-17 9t-6 19q0 4 1 12l48 279-203 197q-14 15-14 27 0 21 31 26l280 40 126 254q11 23 27 23t28-23l125-254 280-40q32-5 32-26z" horiz-adv-x="928.6" />

<glyph glyph-name="left-open" unicode="&#xe805;" d="M654 682l-297-296 297-297q10-10 10-25t-10-25l-93-93q-11-10-25-10t-25 10l-414 415q-11 10-11 25t11 25l414 414q10 11 25 11t25-11l93-93q10-10 10-25t-10-25z" horiz-adv-x="714.3" />

<glyph glyph-name="right-open" unicode="&#xe806;" d="M618 361l-414-415q-11-10-25-10t-25 10l-93 93q-11 11-11 25t11 25l296 297-296 296q-11 11-11 25t11 25l93 93q10 11 25 11t25-11l414-414q10-11 10-25t-10-25z" horiz-adv-x="714.3" />

<glyph glyph-name="up-open" unicode="&#xe807;" d="M939 107l-92-92q-11-10-26-10t-25 10l-296 297-296-297q-11-10-25-10t-25 10l-93 92q-11 11-11 26t11 25l414 414q11 10 25 10t25-10l414-414q11-11 11-25t-11-26z" horiz-adv-x="1000" />

<glyph glyph-name="down-open" unicode="&#xe808;" d="M939 399l-414-413q-10-11-25-11t-25 11l-414 413q-11 11-11 26t11 25l93 92q10 11 25 11t25-11l296-296 296 296q11 11 25 11t26-11l92-92q11-11 11-25t-11-26z" horiz-adv-x="1000" />

<glyph glyph-name="basket" unicode="&#xe809;" d="M357-7q0-29-21-50t-50-22-50 22-22 50 22 50 50 21 50-21 21-50z m500 0q0-29-21-50t-50-22-50 22-22 50 22 50 50 21 50-21 21-50z m72 607v-286q0-13-10-23t-22-12l-583-68q7-34 7-40 0-8-13-35h513q15 0 26-11t10-25-10-25-26-11h-571q-14 0-25 11t-11 25q0 6 5 18t9 20 12 22 8 17l-98 459h-114q-15 0-25 10t-11 25 11 26 25 10h143q9 0 16-3t10-9 8-14 4-14 3-17 3-14h670q14 0 25-11t11-25z" horiz-adv-x="928.6" />

<glyph glyph-name="heart" unicode="&#xe80b;" d="M500-40c-14 0-28 5-39 15-40 35-79 68-113 98l0 0c-101 86-188 160-249 233-67 82-99 159-99 244 0 82 28 157 79 213 52 56 123 87 200 87 58 0 111-18 158-54 23-18 44-41 63-67 19 26 40 49 64 67 46 36 99 54 157 54 77 0 148-31 200-87 51-56 79-131 79-213 0-85-31-162-99-244-61-73-148-147-248-233-35-29-74-63-114-98-11-10-25-15-39-15z m-221 831c-60 0-116-24-157-68-41-44-63-106-63-173 0-72 26-135 85-207 58-69 143-141 241-226l1 0c34-29 73-62 114-98 41 36 80 69 115 98 98 85 183 157 241 226 59 72 85 135 85 207 0 67-22 129-63 173-41 44-97 68-157 68-45 0-86-14-122-42-32-24-54-56-67-78-7-11-19-18-32-18s-25 7-32 18c-13 22-35 54-67 78-36 28-77 42-122 42z m0 0" horiz-adv-x="1000" />

<glyph glyph-name="heart_hover" unicode="&#xe80c;" d="M921 763c-52 56-123 87-200 87-58 0-111-18-157-54-24-18-45-41-64-67-19 26-40 49-63 67-47 36-100 54-158 54-77 0-148-31-200-87-51-56-79-131-79-213 0-85 32-162 99-244 61-73 148-147 249-233 34-29 73-63 113-98 11-10 25-15 39-15 14 0 28 5 39 15 40 35 79 69 114 98 100 86 187 160 248 233 68 82 99 159 99 244 0 82-28 157-79 213z m0 0" horiz-adv-x="1000" />

<glyph glyph-name="instagram" unicode="&#xe80d;" d="M750 850h-500c-137 0-250-112-250-250v-500c0-138 113-250 250-250h500c138 0 250 112 250 250v500c0 138-112 250-250 250z m167-750c0-92-75-167-167-167h-500c-92 0-167 75-167 167v500c0 92 75 167 167 167h500c92 0 167-75 167-167v-500z m-417 500c-138 0-250-112-250-250 0-138 112-250 250-250 138 0 250 112 250 250 0 138-112 250-250 250z m0-417c-92 0-167 75-167 167s75 167 167 167 167-75 167-167-75-167-167-167z" horiz-adv-x="1000" />

<glyph glyph-name="vegan" unicode="&#xe80f;" d="M206 524l274-660 26 18-128 341-145 312z m54 22l-27-11 274-659 14 41z m-191 69c1-3 2-5 4-8 10-21 7-46-8-64-29-33-38-81-20-125 10-24 27-43 48-56 22-13 34-39 28-64-7-26-4-54 8-81 17-35 49-58 85-66 69-14 136-37 198-71l13-7-49 330-242 369c-61-25-91-96-65-157z m385-103c5 24 4 49-6 74-18 43-59 70-102 74-24 1-44 17-51 39-1 3-2 6-3 8-26 62-96 91-158 65l291-699 4 14c19 68 51 132 89 191 20 31 26 70 13 106-10 28-28 49-51 63-22 14-32 40-26 65z m340 12l-274-660-26 18 128 341 145 312z m-54 22l27-11-274-659-14 41z m191 69c-1-3-2-5-4-8-10-21-7-46 8-64 29-33 38-81 20-125-10-24-27-43-48-56-22-13-34-39-28-64 7-26 4-54-8-81-17-35-49-58-85-66-69-14-136-37-198-71l-13-7 49 330 242 369c61-25 91-96 65-157z m-385-103c-5 24-4 49 6 74 18 43 59 70 103 74 23 1 43 17 50 39 1 3 2 6 3 8 26 62 97 91 158 65l-291-699-4 14c-19 68-50 132-89 191-20 31-26 70-13 106 10 28 28 49 51 63 22 14 32 40 26 65z m-167 217c0-2 1-5 1-8 1-23-11-46-32-56-39-20-66-61-66-108 0-26 9-50 23-70 15-21 16-49 0-70-15-22-24-49-23-78 2-38 23-72 53-93 59-40 112-86 156-142l9-11 81 323-81 434c-67 0-121-54-121-121z m316-242c15 20 23 44 23 70 0 47-27 88-66 108-21 10-33 33-32 56 1 3 1 6 1 8 0 67-54 121-121 121v-757l9 11c44 56 97 102 156 142 30 21 51 55 53 93 1 29-8 56-23 78-16 21-15 49 0 70z m-224 106v-743h29l15 399-15 344z m29 0h29v-743h-29z" horiz-adv-x="1000" />

<glyph glyph-name="youtube" unicode="&#xe810;" d="M958 628c-28 48-57 57-117 60-60 4-210 6-341 6-131 0-281-2-341-6-60-3-89-12-117-60-28-49-42-132-42-278 0 0 0 0 0 0 0 0 0 0 0 0v0c0-146 14-229 42-277 28-48 57-57 117-61 60-4 210-6 341-6 131 0 281 2 341 6 60 4 89 13 117 61 28 48 42 131 42 277 0 0 0 0 0 0 0 0 0 0 0 0 0 146-14 229-42 278z m-583-465v375l313-188-313-187z" horiz-adv-x="1000" />

<glyph glyph-name="chili-pepper" unicode="&#xe811;" d="M936-81c-38-19-78-34-119-45-40-12-82-19-125-22-21-1-43-1-65 0-21 1-43 4-64 7-77 14-151 40-219 79-68 39-131 85-187 139-28 25-54 53-78 83-24 29-44 61-60 95-17 37-23 78-16 118 7 38 22 73 46 104 7 8 15 17 23 25 8 7 16 14 25 21-19 36-33 76-41 116-4 24-4 49 0 72 6 28 18 55 35 78 19 23 43 42 70 56 4 2 8 3 12 4 5 1 9 1 14 1 10-1 20-4 30-9 7-5 12-12 13-21 1-8-1-17-5-24-5-7-11-13-19-17-10-5-20-10-29-17-9-6-17-14-24-22-8-11-13-24-15-37-2-14-2-27-1-41 1-9 2-17 4-26 2-9 4-17 6-26 1-4 3-9 4-14 2-5 3-10 5-14 0-1 2-8 4-14 1-4 3-8 5-12 20 10 42 16 64 19 23 3 45 2 67-4 3-1 7-2 10-3 4-1 7-2 11-4 3-1 6-2 10-3 3-1 6-3 9-5 72-44 131-107 170-182 45-81 75-168 90-259 38-14 74-31 108-53 30-18 55-43 72-73 30 3 61 4 92 3 25 0 49-5 73-14 14-9 24-18 24-27 0-10-8-20-29-32z m0 0m-619 105c-4 0-7 2-10 4-32 22-62 47-91 72-26 23-46 44-61 61-5 4-6 11-5 17 2 5 7 10 13 11 6 2 13 0 17-5 15-16 34-36 59-58 28-25 57-49 88-70 6-5 8-13 6-20-2-7-9-12-16-12z m0 0m215-102c-1 0-2 0-2 0-1 1-2 1-2 1-21 5-42 11-62 19-21 8-41 17-61 27-6 2-10 8-10 14-1 6 2 12 8 15 5 4 11 4 17 1 19-9 38-17 58-25 19-7 38-13 58-18 8-2 14-10 13-19-1-8-9-15-17-15z m0 0m468 786c-31-28-56-63-74-101-18-37-27-78-28-119-1-34 0-69-2-103-1-35-7-69-17-102-14-41-42-75-79-98-37-23-79-37-122-39-8 5-15 12-21 19-6 8-11 16-15 25l5 0 5 0c21 7 40 21 54 38 17 24 29 51 36 79-17-6-34-13-51-18-17-5-35-9-52-10-4 0-8 0-12 0-4 0-7 0-11 1 0 0-1 0-1 0-1 0-1 0-1 1 0 0 0 0-1 0-1 3-1 5-2 8-1 3-2 5-3 7-1 3-2 6-3 9-1 3-2 6-3 9-3 5-5 11-7 16-3 6-5 11-8 17 0 0 0 0 0 1 0 0 0 0 0 1 0 2 0 4 1 5 2 2 3 4 4 5 1 2 3 4 4 5 2 2 3 3 5 4 5 4 11 6 16 7 6 2 13 2 19 1 74-10 123-1 154 22 30 24 41 61 39 108h0c-8-9-17-17-27-25-10-8-21-14-33-18-11-4-24-4-36-2-12 3-24 6-36 10-10 4-20 7-31 9-10 3-21 6-31 8-14 2-27 3-41 3-14 0-27-1-41-2-5-1-10-1-15-1-6 0-11 0-16 1-4 0-7 1-11 1-4 1-7 2-11 3 0 0-1 0-1 0 0 0-1 0-1 0-1 1-2 2-3 3-1 1-1 3-2 4-1 1-2 2-4 4-1 1-2 2-3 4-3 4-7 8-10 11-4 4-8 8-11 12-1 1-2 2-4 3-1 1-2 3-3 4 0 13 5 26 14 36 9 13 21 26 32 39-17 6-34 6-51 2-14-4-27-12-37-22-3-3-7-4-11-5-4 0-8 1-11 3-5 3-10 6-14 9-5 3-10 6-15 9-2 1-5 3-8 4-3 2-5 3-8 4-4 2-8 5-10 9-2 4-2 9 0 14 24 60 77 105 141 119 69 17 156 10 257-29-80-54-80-110-48-137 31-28 94-25 141 38 20 31 49 54 84 65 28 7 57 11 86 12z m0 0m-687-305c-33 2-64 15-90 36-18 15-28 29-40 29-27-54-60-108-87-120-27-13-48 16-47 129v0c7 9 15 17 23 25 8 7 16 14 25 21-19 36-33 76-41 116-4 24-4 49 0 72 6 28 18 55 35 78 19 23 43 42 70 56 4 2 8 3 12 4 5 1 9 1 14 1 10-1 20-4 30-9 7-5 12-12 13-21 1-8-1-17-5-24-5-7-11-13-19-17-10-5-20-10-29-17-9-6-17-14-24-22-8-11-13-24-15-37-2-14-2-27-1-41 1-9 2-17 4-26 2-9 4-17 6-26 1-4 3-9 4-14 2-5 3-10 5-14 0-1 2-8 4-14 1-4 3-8 5-12 20 10 42 16 64 19 23 3 45 2 67-4 3-1 7-2 10-3 4-1 7-2 11-4-13-18-19-41-17-64 3-25 14-49 29-70 4-5 4-12 1-18-4-6-10-9-17-9z m0 0m630-427c-38-16-80-25-122-25-85-1-170 12-252 38-124 37-214 132-277 230-47 76-85 158-111 244 0 1 1 2 1 3 0 0 1 1 1 2 12 0 21-14 39-28 24-20 53-33 85-36 1 0 2 0 3 0s2-1 3-1c7 0 13 3 17 9 3 5 3 13-1 18-15 21-26 45-29 70-2 23 4 46 17 64h0c3-1 6-2 10-3 3-1 6-3 9-5 54-32 101-77 137-129 39-57 70-120 91-185 7-21 13-42 19-63 5-21 9-43 13-64 38-14 74-31 108-53 30-18 55-43 72-73 30 3 61 4 92 3 25 0 49-5 73-14l1-1z m0 0" horiz-adv-x="1000" />

<glyph glyph-name="close" unicode="&#xe812;" d="M52-150c-14 0-27 5-37 15-20 20-20 52 0 73l898 897c20 20 52 20 72 0 20-20 20-53 0-73l-897-897c-10-10-23-15-36-15z m0 0m897 0c-13 0-26 5-36 15l-898 897c-20 20-20 53 0 73s53 20 73 0l897-897c20-21 20-53 0-73-10-10-23-15-36-15z m0 0" horiz-adv-x="1000" />

<glyph glyph-name="next" unicode="&#xe814;" d="M759 377l-463 462c-15 15-40 15-55 0-15-15-15-40 0-55l435-434-435-434c-15-15-15-39 0-55 8-7 18-11 28-11 10 0 20 4 27 11l463 462c7 7 11 17 11 27s-4 20-11 27z" horiz-adv-x="1000" />

<glyph glyph-name="right-arrow" unicode="&#xe815;" d="M277 844c-9 8-23 8-31-1-8-8-8-22 0-30l463-463-463-463c-9-8-9-22-1-30 9-9 22-9 31-1 0 0 0 0 0 1l479 478c8 8 8 22 0 31l-478 478z m-16-994c-12 0-22 10-22 22 0 6 3 11 7 15l463 463-463 463c-9 8-9 22 0 31 8 8 22 8 31 0l478-478c8-9 8-23 0-31l-478-478c-5-5-10-7-16-7z" horiz-adv-x="1000" />

<glyph glyph-name="left-arrow" unicode="&#xe816;" d="M759-78c16-16 16-43 0-60-8-8-19-12-30-12s-22 4-30 12l-458 458c-16 17-16 43 0 60l458 458c16 16 43 16 60 0 16-17 16-44 0-60l-428-428z" horiz-adv-x="1000" />

<glyph glyph-name="fast-backward" unicode="&#xf013;" d="M0 16v667q0 26 18 44t44 19h123q25 0 43-19t18-44v-285l543 335q30 21 52 8t22-52v-286l534 330q30 21 52 8t22-52v-679q0-39-22-51t-52 7l-534 331v-287q0-39-22-51t-52 7l-543 336v-286q0-26-18-44t-43-18h-123q-26 0-44 18t-18 44z" horiz-adv-x="1471.7" />

<glyph glyph-name="star-half" unicode="&#xf022;" d="M3 450q-12 30 16 47t87 18h233l70 213 0 2q15 43 33 66t39 21v-727l-186-135-3-2q-49-35-82-36t-40 29 10 89l1 1 0 1 70 214-182 130-2 2-3 1q-49 36-61 66z" horiz-adv-x="481" />

<glyph glyph-name="star-half_empty" unicode="&#xf024;" d="M3 436q-12 31 16 50t91 18h242l73 222 1 1q14 45 33 68t40 23v-168l-80-240h-251l203-145-21-65-57-173 206 147v-115l-192-137-3-2q-52-39-88-39-32 0-40 32t11 92l1 3 73 221-189 135-3 3-3 1q-51 37-63 68z" horiz-adv-x="498.5" />

<glyph glyph-name="location" unicode="&#xf031;" d="M0 473q0 70 27 134 25 61 74 111 47 47 110 73 63 27 134 27 72 0 135-27 62-26 110-73 48-49 74-111 27-64 27-134t-27-134q-18-40-36-65l-229-347q-22-35-53-35t-55 35l-228 347q-22 31-36 65-27 64-27 134z m217 0q0-53 37-91 38-38 91-38 54 0 91 38 38 37 38 91 0 53-38 91-37 38-91 38-53 0-91-38-37-38-37-91z" horiz-adv-x="691.4" />

<glyph glyph-name="trophy" unicode="&#xf074;" d="M0 545q1 35 18 64 20 33 57 48t82 8q-1 32-1 50 0 44 69 74t188 29q119 0 188-29t69-74q0-2-1-50 44 7 82-8t58-48q17-29 17-64t-16-68q-14-27-46-51t-94-61q-36-22-53-33t-46-31-49-38-31-36q-12-25-12-57 0-49 32-92t74-57q41-12 55-27t14-43-67-50-174-20-174 20-67 50 14 43 56 27q42 13 74 57t32 92q0 32-13 57-9 14-26 31t-31 27-41 29-39 26-42 25q-41 24-63 39t-45 34-32 39q-17 34-16 68z m90 19q-12-19 2-49 10-18 99-72-19 58-27 133-2 1-7 2t-6 2q-18 3-20 3-29 0-41-19z m161 147q0-20 48-33t114-14q67 0 114 14t47 33-47 33-114 14-114-14-48-33z m384-268q90 54 99 72 14 30 2 49-16 25-61 16-3-1-12-4-10-79-28-133z" horiz-adv-x="826.7" />

<glyph glyph-name="angle-right" unicode="&#xf105;" d="M332 314q0-7-5-12l-261-261q-5-5-12-5t-13 5l-28 28q-6 6-6 13t6 13l219 219-219 220q-6 5-6 12t6 13l28 28q5 6 13 6t12-6l261-260q5-5 5-13z" horiz-adv-x="357.1" />
</font>
</defs>
</svg>
