<svg id="svg4593" height="512" viewBox="0 0 16.933333 16.933334" width="512" xmlns="http://www.w3.org/2000/svg" xmlns:svg="http://www.w3.org/2000/svg"><clipPath id="clipPath5337"><path id="rect5339" d="m34.774 274.321h35.435v25.702h-35.435z"/></clipPath><clipPath id="clipPath4542"><path id="rect4544" d="m-535.214-48.848h501.574v185.586h-501.574z"/></clipPath><clipPath id="clipPath11017"><path id="rect11019" d="m36.669 153.503h29.654v28.999h-29.654z" transform="rotate(-90)" vector-effect="none"/></clipPath><clipPath id="clipPath11444"><path id="rect11446" d="m-143.933 265.779h28.84v29.104h-28.84z" transform="rotate(-90)" vector-effect="none"/></clipPath><clipPath id="clipPath11781"><rect id="rect11783" height="32.411" rx=".634" transform="rotate(-90)" width="32.941" x="-145.124" y="181.377"/></clipPath><clipPath id="clipPath11499"><path id="rect11501" d="m-551.399-9.261h16.064v16.347h-16.064z" vector-effect="none"/></clipPath><g id="layer1" transform="translate(0 -280.067)"><g id="g20571" transform="translate(-.419)"><g id="g21530" transform="translate(0 -.181)"><path id="path12942" d="m14.67331 294.51428c-.35735.35735-1.68438.31728-2.12205.56996-.43766.25268-1.06647 1.42196-1.55462 1.55276s-1.61736-.56741-2.12273-.56741-1.63457.69821-2.12272.56741-1.11697-1.30008-1.55463-1.55276-1.76469-.21261-2.12204-.56996c-.35735-.35736-.31728-1.68438-.56997-2.12204-.25268-.43767-1.42196-1.06648-1.55276-1.55464-.1308-.48814.56742-1.61735.56742-2.12272 0-.50536-.69822-1.63458-.56742-2.12272.1308-.48815 1.30008-1.11697 1.55276-1.55463.25269-.43765.21262-1.76469.56997-2.12204s1.68438-.31729 2.12204-.56997c.43766-.25269 1.06648-1.42196 1.55463-1.55276s1.61735.56741 2.12272.56741 1.63458-.69821 2.12273-.56741 1.11696 1.30007 1.55462 1.55276c.43767.25268 1.7647.21262 2.12205.56997s.31728 1.68439.56996 2.12204c.25269.43766 1.42196 1.06648 1.55276 1.55463.1308.48814-.56741 1.61735-.56741 2.12272s.69821 1.63458.56741 2.12272c-.1308.48816-1.30007 1.11697-1.55276 1.55464-.25268.43766-.21261 1.76468-.56996 2.12204z" fill="#55a1ff" vector-effect="none"/><path id="path13225" d="m13.75186 287.36434s1.01619 2.52164-1.27735 4.9375c-2.24441 2.36412-5.48437 1.15821-5.48437 1.15821-.6742532-.27321-1.0568573.76062-.36719.99218 0 0 3.90262 1.43953 6.61914-1.42187 2.6674-2.80966 1.5-6.04102 1.5-6.04102-.317964-.69445-1.177545-.19809-.99023.375z" fill="#488bff" font-variant-ligatures="normal" font-variant-position="normal" font-variant-caps="normal" font-variant-numeric="normal" font-variant-alternates="normal" font-feature-settings="normal" text-indent="0" text-align="start" text-decoration-line="none" text-decoration-style="solid" text-decoration-color="#000000" text-transform="none" text-orientation="mixed" white-space="normal" shape-padding="0" isolation="auto" mix-blend-mode="normal" solid-color="#000000" solid-opacity="1" vector-effect="none"/><path id="path13146" d="m14.1113 288.71408a5.238483 5.238483 0 0 1 -5.23848 5.23848 5.238483 5.238483 0 0 1 -5.23848-5.23848 5.238483 5.238483 0 0 1 5.23848-5.23849 5.238483 5.238483 0 0 1 5.23848 5.23849z" fill="#ffc861" vector-effect="none"/><path id="path13148" d="m29.791016 26.666016c-.552263.0022-.9982.451642-.996094 1.003906-.0026 2.894993 0 5.766036 0 8.658203-.0021.552264.443831 1.001698.996094 1.003906h3.492187c1.363604.03061 1.363604-2.030615 0-2h-2.496094v-2.376953h2.496094c1.363604.03061 1.363604-2.030615 0-2h-2.496094v-2.289062h2.496094c1.363604.03062 1.363604-2.030615 0-2zm16.589843.001953c-.493292-.000739-1.007659.332956-1.058593.898437l-.6875 6.615235-1.871094-1.810547c-.586075-.560806-1.265628-.371073-1.640625.003906l-1.869141 1.806641-.693359-6.615235c-.202646-1.435767-2.144818-.894543-1.986328.207032l.90039 8.638671c.09944.957098 1.254381 1.175157 1.878907.525391l2.591796-2.576172 2.591797 2.515625c.752679.775242 1.813402.506047 1.878907-.519531l.90039-8.583984c.02996-.76956-.442254-1.104731-.935547-1.105469zm-21.849609.011719c-.5.012299-1 .380392-1 1.068359v5.738281l-5.160156-6.445312c-.688702-.688702-1.779297-.172811-1.779297.755859v8.496094c-.03023 1.363231 2.030234 1.363231 2 0v-5.777344l5.017578 6.259766c.580846.808891 1.921875.385221 1.921875-.673829v-8.353515c0-.737173-.5-1.080661-1-1.068359z" fill="#666" transform="matrix(.265 0 0 .265 .419 280.248)" font-variant-ligatures="normal" font-variant-position="normal" font-variant-caps="normal" font-variant-numeric="normal" font-variant-alternates="normal" font-feature-settings="normal" text-indent="0" text-align="start" text-decoration-line="none" text-decoration-style="solid" text-decoration-color="#000000" text-transform="none" text-orientation="mixed" white-space="normal" shape-padding="0" isolation="auto" mix-blend-mode="normal" solid-color="#000000" solid-opacity="1" vector-effect="none"/></g></g></g></svg>